<?xml version="1.0" encoding="UTF-8" standalone="no"?>
<!-- Created with Inkscape (http://www.inkscape.org/) -->

<svg
   xmlns:dc="http://purl.org/dc/elements/1.1/"
   xmlns:cc="http://creativecommons.org/ns#"
   xmlns:rdf="http://www.w3.org/1999/02/22-rdf-syntax-ns#"
   xmlns:svg="http://www.w3.org/2000/svg"
   xmlns="http://www.w3.org/2000/svg"
   xmlns:sodipodi="http://sodipodi.sourceforge.net/DTD/sodipodi-0.dtd"
   xmlns:inkscape="http://www.inkscape.org/namespaces/inkscape"
   width="1px"
   height="1px"
   viewBox="0 0 1 1"
   version="1.1"
   id="SVGRoot"
   inkscape:version="0.92.3 (2405546, 2018-03-11)"
   sodipodi:docname="drawing.svg">
  <sodipodi:namedview
     id="base"
     pagecolor="#ffffff"
     bordercolor="#666666"
     borderopacity="1.0"
     inkscape:pageopacity="0.0"
     inkscape:pageshadow="2"
     inkscape:zoom="256"
     inkscape:cx="1.7265625"
     inkscape:cy="0.65625"
     inkscape:document-units="px"
     inkscape:current-layer="layer1"
     showgrid="false"
     inkscape:window-width="1916"
     inkscape:window-height="1033"
     inkscape:window-x="1920"
     inkscape:window-y="45"
     inkscape:window-maximized="0" />
  <defs
     id="defs3713" />
  <metadata
     id="metadata3716">
    <rdf:RDF>
      <cc:Work
         rdf:about="">
        <dc:format>image/svg+xml</dc:format>
        <dc:type
           rdf:resource="http://purl.org/dc/dcmitype/StillImage" />
        <dc:title></dc:title>
      </cc:Work>
    </rdf:RDF>
  </metadata>
  <g
     id="layer1"
     inkscape:groupmode="layer"
     inkscape:label="Layer 1">
    <path
       style="fill:none;stroke:#000000;stroke-width:0.01;stroke-linecap:butt;stroke-linejoin:miter;stroke-opacity:1;stroke-miterlimit:4;stroke-dasharray:none"
       d="m 0.09765625,0.08984375 c 0.0026042,-0.0013021 0.0065104,-0.0065104 0.0078125,-0.0039063 0.001302,0.0026042 -0.01072405,0.0039063 -0.0078125,0.0039063 0.0079203,0 0.01559684,-0.0027862 0.0234375,-0.0039063 0.004762,-6.8027e-4 0.0109732,0 0.015625,0 0.0117188,0 0.0234375,0 0.0351563,0 0.002604,0 0.005208,0 0.007813,0 0.002604,0 0.005286,6.316e-4 0.007813,0 0.002825,-7.0615e-4 0.004988,-0.0032001 0.007813,-0.0039063 0.002526,-6.316e-4 0.005208,0 0.007813,0 0.002604,0 0.005208,0 0.007813,0 0.009115,0 0.0182292,0 0.0273438,0 0.0117188,0 0.0234375,0 0.0351563,0 0.002604,0 0.005208,0 0.007813,0 0.001302,0 0.002671,4.1175e-4 0.003906,0 0.002762,-9.2071e-4 0.00505,-0.0029855 0.007813,-0.0039063 0.002204,-7.3463e-4 0.009152,0 0.0117188,0 0.14583333,0 0.29166667,0 0.4375,0 0.0286458,0 0.0572917,0 0.0859375,0 0.003906,0 0.007813,0 0.0117188,0 0.001302,0 0.002986,-9.2071e-4 0.003906,0 9.2071e-4,9.2071e-4 -0.001165,0.0033239 0,0.0039063 0.001143,5.7148e-4 0.0202402,0 0.0234375,0 0.001302,0 0.002604,0 0.003906,0 0.001302,0 0.002986,-9.2071e-4 0.003906,0 9.2071e-4,9.2071e-4 -9.2071e-4,0.0029855 0,0.0039063 0.00121,0.0012096 0.0183217,-0.0012096 0.0195313,0 9.2071e-4,9.2071e-4 -9.2071e-4,0.0029855 0,0.0039063 9.2071e-4,9.2071e-4 0.002604,0 0.003906,0 0.009115,0 0.0182292,0 0.0273438,0 0.001302,0 0.002604,0 0.003906,0 0.001302,0 0.003906,-0.0013021 0.003906,0 0,0.0013021 -0.002604,0 -0.003906,0"
       id="path4536"
       inkscape:connector-curvature="0" />
    <path
       style="fill:none;stroke:#000000;stroke-width:0.01;stroke-linecap:butt;stroke-linejoin:miter;stroke-opacity:1;stroke-miterlimit:4;stroke-dasharray:none"
       d="M 0.09765625,0.08984375 C 0.09289894,0.10487007 0.09375,0.11750575 0.09375,0.1328125 c 0,0.002604 -5.1072e-4,0.005259 0,0.007813 8.0752e-4,0.004038 0.0029076,0.007724 0.0039063,0.0117188 8.3548e-4,0.003342 0,0.0156269 0,0.0195313 0,0.001302 -4.1175e-4,0.002671 0,0.003906 9.2071e-4,0.002762 0.0032001,0.004988 0.0039063,0.007813 0.001519,0.006077 -0.001229,0.0133867 0,0.0195313 8.0752e-4,0.004038 0.003099,0.007681 0.003906,0.0117188 5.1072e-4,0.002554 -6.316e-4,0.005286 0,0.007813 7.0615e-4,0.002825 0.0032,0.004988 0.003906,0.007813 6.316e-4,0.002526 -5.1072e-4,0.005259 0,0.007813 8.0752e-4,0.004038 0.003229,0.007657 0.003906,0.0117188 0.00107,0.006422 -0.001579,0.0132152 0,0.0195313 7.0615e-4,0.002825 0.002604,0.005208 0.003906,0.007813 0,0.003906 -6.4218e-4,0.007866 0,0.0117188 6.7692e-4,0.004062 0.003099,0.007681 0.003906,0.0117188 5.1072e-4,0.002554 -6.316e-4,0.005286 0,0.007813 7.0615e-4,0.002825 0.003335,0.004957 0.003906,0.007813 7.6608e-4,0.00383 0,0.007813 0,0.0117188 0,0.001302 -3.158e-4,0.002643 0,0.003906 9.9865e-4,0.003995 0.002908,0.007724 0.003906,0.0117188 3.158e-4,0.001263 0,0.002604 0,0.003906 0,0.003906 -7.6608e-4,0.007888 0,0.0117188 5.71e-4,0.002855 0.0032,0.004988 0.003906,0.007813 6.316e-4,0.002526 0,0.005208 0,0.007813 0,0.003906 0,0.007813 0,0.0117188 0,0.0117188 0,0.0234375 0,0.0351563 0,0.0221354 0,0.0442708 0,0.0664063 0,0.007813 0,0.015625 0,0.0234375 0,0.002604 6.316e-4,0.005286 0,0.007813 -7.0615e-4,0.002825 -0.003335,0.004957 -0.003906,0.007813 -7.6608e-4,0.00383 6.4218e-4,0.007866 0,0.0117188 -6.7692e-4,0.004062 -0.003229,0.007657 -0.003906,0.0117188 -6.4218e-4,0.003853 0,0.007813 0,0.0117188 0,0.007813 0,0.015625 0,0.0234375 0,0.002604 0,0.005208 0,0.007813 0,0.001302 4.1175e-4,0.002671 0,0.003906 -9.2071e-4,0.002762 -0.002986,0.00505 -0.003906,0.007813 -7.3463e-4,0.002204 0,0.009152 0,0.0117188 0,0.0104167 0,0.0208333 0,0.03125 0,0.0221354 0,0.0442708 0,0.0664063 0,0.007813 0,0.015625 0,0.0234375 0,0.002604 0,0.005208 0,0.007813 0,0.001302 4.1175e-4,0.002671 0,0.003906 -9.2071e-4,0.002762 -0.002986,0.00505 -0.003906,0.007813 -4.1175e-4,0.001235 0,0.002604 0,0.003906 0,0.007813 0,0.015625 0,0.0234375 0,0.002604 6.316e-4,0.005286 0,0.007813 -9.9865e-4,0.003995 -0.002908,0.007724 -0.003906,0.0117188 -3.158e-4,0.001263 0,0.002604 0,0.003906 0,0.002604 0,0.005208 0,0.007813 0,0.009115 0,0.0182292 0,0.0273438 0,0.003906 0.001747,0.008225 0,0.0117188 -5.8231e-4,0.001165 -0.002986,-9.2071e-4 -0.003906,0 -9.2071e-4,9.2071e-4 0,0.002604 0,0.003906 0,0.001302 0,0.002604 0,0.003906 0,0.001759 5.944e-4,0.01053 0,0.0117188 -8.2351e-4,0.001647 -0.003083,0.002259 -0.003906,0.003906 -0.001228,0.002455 0.001228,0.0131698 0,0.015625 -8.2351e-4,0.001647 -0.003083,0.002259 -0.003906,0.003906 -5.1356e-4,0.001027 0,0.0135823 0,0.015625 0,0.005208 0,0.0104167 0,0.015625 0,0.001302 0.001302,0.003906 0,0.003906 -0.001302,0 0,-0.002604 0,-0.003906"
       id="path4538"
       inkscape:connector-curvature="0" />
    <path
       style="fill:none;stroke:#000000;stroke-width:0.01;stroke-linecap:butt;stroke-linejoin:miter;stroke-opacity:1;stroke-miterlimit:4;stroke-dasharray:none"
       d="m 0.1015626,0.9296949 c 0.003906,0.0013 0.007724,0.002902 0.0117186,0.003899 0.002527,6.3048e-4 0.005208,0 0.007813,0 0.00651,0 0.0130208,0 0.0195313,0 0.0195313,0 0.0390625,0 0.0585938,0 0.0677083,0 0.13541667,0 0.203125,0 0.0260417,0 0.0520833,0 0.078125,0 0.0104167,0 0.0208333,0 0.03125,0 0.005208,0 0.0105407,0.00113 0.015625,0 0.006845,-0.001521 0.0127891,-0.005886 0.0195313,-0.007813 0.002504,-7.1542e-4 0.005208,0 0.007813,0 0.007813,0 0.0156853,9.6902e-4 0.0234375,0 0.006588,-8.2351e-4 0.0129432,-0.003083 0.0195313,-0.003906 0.002412,-3.0154e-4 0.0289981,-3.7531e-4 0.03125,0 0.004062,6.7692e-4 0.007681,0.003099 0.0117188,0.003906 0.002554,5.1072e-4 0.005259,-5.1072e-4 0.007813,0 0.004038,8.0752e-4 0.007681,0.003099 0.0117188,0.003906 0.002554,5.1072e-4 0.005286,-6.316e-4 0.007813,0 0.002825,7.0615e-4 0.004988,0.0032 0.007813,0.003906 0.002526,6.316e-4 0.005342,-8.2351e-4 0.007813,0 0.001747,5.8231e-4 0.002159,0.003324 0.003906,0.003906 0.004151,0.001384 0.0114742,-0.001384 0.015625,0 0.002762,9.2071e-4 0.00505,0.002986 0.007813,0.003906 0.002263,7.5426e-4 0.0122399,0 0.015625,0 0.002251,0 0.0181075,-7.1187e-4 0.0195313,0 0.001647,8.2351e-4 0.002259,0.003083 0.003906,0.003906 0.001188,5.9382e-4 0.0129276,0 0.015625,0 0.0117188,0 0.0234375,0 0.0351563,0 0.0104167,0 0.0208333,0 0.03125,0 0.001759,0 0.01053,5.944e-4 0.0117188,0 0.001647,-8.2351e-4 0.002259,-0.003083 0.003906,-0.003906 0.002478,-0.001239 0.0169937,0.001269 0.0195313,0 0.001647,-8.2351e-4 0.002259,-0.003083 0.003906,-0.003906 0.002496,-0.001248 0.0124809,0.001048 0.015625,0 0.002762,-9.2071e-4 0.00505,-0.002986 0.007813,-0.003906 0.001235,-4.1175e-4 0.002742,5.8231e-4 0.003906,0 0.001647,-8.2351e-4 0.002259,-0.003083 0.003906,-0.003906 0.002329,-0.001165 0.005971,0.001841 0.007813,0 0.005208,-0.005208 -0.00651,-0.003906 0.003906,-0.003906 -0.0128916,-0.0115845 -7.4949e-4,-0.0264223 -0.003909,-0.0390622 -7.0615e-4,-0.002825 -0.0032,-0.004988 -0.003906,-0.007813 -9.474e-4,-0.00379 0.001235,-0.008013 0,-0.0117188 -9.2071e-4,-0.002762 -0.0032,-0.004988 -0.003906,-0.007813 -0.001263,-0.005053 0.001263,-0.0105722 0,-0.015625 -7.0615e-4,-0.002825 -0.002986,-0.00505 -0.003906,-0.007813 -4.1175e-4,-0.001235 0,-0.002604 0,-0.003906 0,-0.003906 0,-0.007813 0,-0.0117188 0,-0.002604 5.1072e-4,-0.005259 0,-0.007813 -8.0752e-4,-0.004038 -0.003229,-0.007657 -0.003906,-0.0117188 -6.4218e-4,-0.003853 7.6608e-4,-0.007888 0,-0.0117188 -5.71e-4,-0.002855 -0.003335,-0.004957 -0.003906,-0.007813 -7.6608e-4,-0.00383 6.4218e-4,-0.007866 0,-0.0117188 -6.7692e-4,-0.004062 -0.002604,-0.007813 -0.003906,-0.0117188 0,-0.00651 5.4066e-4,-0.0130433 0,-0.0195313 -0.007331,-0.0879744 -3.079e-4,0.0206664 -0.007813,-0.046875 -5.7516e-4,-0.005176 4.3253e-4,-0.0104347 0,-0.015625 -8.7179e-4,-0.0104615 -0.003101,-0.0207832 -0.003906,-0.03125 -0.001116,-0.0145089 0.001563,-0.0328125 0,-0.046875 -3.2153e-4,-0.002894 -0.003585,-0.004919 -0.003906,-0.007813 -0.001007,-0.009059 0,-0.0182292 0,-0.0273438 0,-0.00651 0,-0.0130208 0,-0.0195313 0,-0.015625 0,-0.03125 0,-0.046875 0,-0.007813 -8.6275e-4,-0.0156728 0,-0.0234375 9.0941e-4,-0.008185 0.006197,-0.0153623 0.007813,-0.0234375 0.001447,-0.007234 -0.00217,-0.0119358 0,-0.0195313 0.0016,-0.005599 0.005519,-0.0102727 0.007813,-0.015625 0.001622,-0.003785 0.002604,-0.007813 0.003906,-0.0117188 0.001302,-0.003906 0.003099,-0.007681 0.003906,-0.0117188 5.1072e-4,-0.002554 -9.6716e-4,-0.005395 0,-0.007813 0.001744,-0.004359 0.005713,-0.00752 0.007813,-0.0117188 0.007222,-0.014445 5.9001e-4,-0.0207113 0.007813,-0.0351563 8.2351e-4,-0.001647 0.003222,-0.002197 0.003906,-0.003906 0.009483,-0.0237083 5.3766e-4,-0.007132 0.003906,-0.0273438 6.7692e-4,-0.004062 0.002908,-0.007724 0.003906,-0.0117188 3.158e-4,-0.001263 -3.158e-4,-0.002643 0,-0.003906 9.9865e-4,-0.003995 0.003099,-0.007681 0.003906,-0.0117188 5.1072e-4,-0.002554 -5.1072e-4,-0.005259 0,-0.007813 8.0752e-4,-0.004038 0.003229,-0.007657 0.003906,-0.0117188 8.8188e-4,-0.005291 0,-0.0208754 0,-0.0273438 0,-0.001302 -3.158e-4,-0.002643 0,-0.003906 9.9865e-4,-0.003995 0.003099,-0.007681 0.003906,-0.0117188 5.1072e-4,-0.002554 0,-0.005208 0,-0.007813 0,-0.005208 0,-0.0104167 0,-0.015625 0,-0.001302 0,-0.002604 0,-0.003906 0,-0.001302 -5.8231e-4,-0.002742 0,-0.003906 8.2351e-4,-0.001647 0.003083,-0.002259 0.003906,-0.003906 7.0632e-4,-0.001413 0,-0.0168143 0,-0.0195313 0,-0.001302 -9.2071e-4,-0.002986 0,-0.003906 9.2071e-4,-9.2071e-4 0.002986,9.2071e-4 0.003906,0 9.2071e-4,-9.2071e-4 0,-0.002604 0,-0.003906 0,-0.009115 0,-0.0182292 0,-0.0273438 0,-0.009115 0,-0.0182292 0,-0.02734375 0,-0.0013021 0,-0.0026042 0,-0.0039063 0,-0.0013021 0.001235,-0.0034944 0,-0.0039063 -0.003705,-0.0012352 -0.007811,0 -0.0117164,0"
       id="path4540"
       inkscape:connector-curvature="0" />
    <path
       style="fill:none;stroke:#000000;stroke-width:0.01;stroke-linecap:butt;stroke-linejoin:miter;stroke-opacity:1;stroke-miterlimit:4;stroke-dasharray:none"
       d="m 0.4921875,0.06640625 c 0,0.02083333 0,0.04166667 0,0.0625 0,0.00651 0.00107,0.0131094 0,0.0195313 -3.0273e-4,0.001816 -0.003545,0.002101 -0.003906,0.003906 -0.001021,0.005107 0,0.0104167 0,0.015625 0,0.0143229 0,0.0286458 0,0.0429687 0,0.0442708 0,0.0885417 0,0.1328125 0,0.11848958 0,0.23697917 0,0.35546875 0,0.03125 0,0.0625 0,0.09375 0,0.0104167 0,0.0208333 0,0.03125 0,0.002604 0,0.005208 0,0.007813 0,0.001302 -5.8231e-4,0.002742 0,0.003906 8.2351e-4,0.001647 0.003083,0.002259 0.003906,0.003906 0.001563,0.003125 -0.001563,0.008594 0,0.0117188 8.2351e-4,0.001647 0.003083,0.002259 0.003906,0.003906 0.001228,0.002455 -0.001228,0.0131698 0,0.015625 0.001647,0.003294 0.006165,0.004518 0.007813,0.007813 5.8231e-4,0.001165 -5.8231e-4,0.002742 0,0.003906 8.2351e-4,0.001647 0.003083,0.002259 0.003906,0.003906 5.8231e-4,0.001165 -9.2071e-4,0.002986 0,0.003906 9.2071e-4,9.2071e-4 0.002986,-9.2071e-4 0.003906,0 3.9062e-4,3.9062e-4 3.9062e-4,0.0113281 0,0.0117188 -9.2071e-4,9.2071e-4 -0.002986,-9.2071e-4 -0.003906,0 -9.2071e-4,9.2071e-4 5.8231e-4,0.002742 0,0.003906 -8.2351e-4,0.001647 -0.003083,0.002259 -0.003906,0.003906 -5.8231e-4,0.001165 9.2071e-4,0.002986 0,0.003906 -9.2071e-4,9.2071e-4 -0.002986,-9.2071e-4 -0.003906,0 -1.5719e-4,1.5719e-4 0,0.0141905 0,0.015625"
       id="path4544"
       inkscape:connector-curvature="0" />
    <path
       style="fill:none;stroke:#000000;stroke-width:0.01;stroke-linecap:butt;stroke-linejoin:miter;stroke-opacity:1;stroke-miterlimit:4;stroke-dasharray:none"
       d="m 0.09765625,0.18359375 c 0.0065104,0 0.01305314,6.4781e-4 0.01953125,0 0.006606,-6.6064e-4 0.0129192,-0.003305 0.0195313,-0.003906 0.0167883,-0.001526 0.0339929,0.001526 0.0507813,0 0.005347,-4.8605e-4 0.010283,-0.003372 0.015625,-0.003906 0.007774,-7.7737e-4 0.015625,0 0.0234375,0 0.0130208,0 0.0260417,0 0.0390625,0 0.009115,0 0.018256,6.9906e-4 0.0273438,0 0.007897,-6.0746e-4 0.0155374,-0.003342 0.0234375,-0.003906 0.0103902,-7.4216e-4 0.0208564,6.9291e-4 0.03125,0 0.0183735,-0.001225 0.0363489,-0.006145 0.0546875,-0.007813 0.005187,-4.7154e-4 0.0104167,0 0.015625,0 0.009115,0 0.0182292,0 0.0273438,0 0.0286458,0 0.0572917,0 0.0859375,0 0.0104167,0 0.0208333,0 0.03125,0 0.005208,0 0.0104875,8.5624e-4 0.015625,0 0.002872,-4.7866e-4 0.004941,-0.003428 0.007813,-0.003906 0.005137,-8.5624e-4 0.0104167,0 0.015625,0 0.003906,0 0.007813,0 0.0117188,0 0.003906,0 0.007866,6.4218e-4 0.0117188,0 0.004062,-6.7692e-4 0.007724,-0.002908 0.0117188,-0.003906 0.001263,-3.158e-4 0.002604,0 0.003906,0 0.00651,0 0.0130208,0 0.0195313,0 0.0182292,0 0.0364583,0 0.0546875,0 0.0130208,0 0.0260417,0 0.0390625,0 0.003315,0 0.0212841,-7.1781e-4 0.0234375,0 0.001747,5.8231e-4 0.002259,0.003083 0.003906,0.003906 0.002243,0.001121 0.0202923,-0.001048 0.0234375,0 0.001747,5.8231e-4 0.002159,0.003324 0.003906,0.003906 0.003706,0.001235 0.008013,-0.001235 0.0117188,0 0.002762,9.2071e-4 0.00505,0.002986 0.007813,0.003906 0.002329,7.7639e-4 0.0196529,0 0.0234375,0 0.001302,0 0.002986,-9.2071e-4 0.003906,0 9.2071e-4,9.2071e-4 -9.2071e-4,0.002986 0,0.003906 9.2071e-4,9.2071e-4 0.002604,0 0.003906,0 0.001302,0 0.002604,0 0.003906,0 0.00651,0 0.0130208,0 0.0195313,0 0.001302,0 0.002604,0 0.003906,0 0.001302,0 0.002742,-5.8231e-4 0.003906,0 0.001647,8.2351e-4 0.002259,0.003083 0.003906,0.003906 0.00101,5.0498e-4 0.0206687,0 0.0234375,0 0.001302,0 0.002604,0 0.003906,0 0.001302,0 0.002986,-9.2071e-4 0.003906,0 9.2071e-4,9.2071e-4 -9.2071e-4,0.002986 0,0.003906 1.7704e-4,1.7704e-4 0.0176895,0 0.0195313,0"
       id="path4548"
       inkscape:connector-curvature="0" />
    <path
       style="fill:none;stroke:#000000;stroke-width:0.01;stroke-linecap:butt;stroke-linejoin:miter;stroke-opacity:1;stroke-miterlimit:4;stroke-dasharray:none"
       d="m 0.1171866,0.2773468 c 0.002604,0.003905 0.004058,0.0089 0.007813,0.0117157 0.005124,0.003841 0.0117448,-0.00313 0.015625,-0.003906 0.007661,-0.001532 0.0157313,0.001284 0.0234375,0 0.004062,-6.7692e-4 0.007643,-0.003324 0.0117188,-0.003906 0.005156,-7.3657e-4 0.0104167,0 0.015625,0 0.0130208,0 0.0260417,0 0.0390625,0 0.03125,0 0.0625,0 0.09375,0 0.0377604,0 0.0755208,0 0.11328125,0 0.0130208,0 0.0260417,0 0.0390625,0 0.003906,0 0.007843,-4.8451e-4 0.0117188,0 0.006588,8.2351e-4 0.0129586,0.002967 0.0195313,0.003906 0.007023,0.001003 0.0166668,-0.001354 0.0234375,0 0.004038,8.0752e-4 0.007724,0.002908 0.0117188,0.003906 0.001263,3.158e-4 0.002604,0 0.003906,0 0.009115,0 0.0182292,0 0.0273438,0 0.003906,0 0.007866,-6.4218e-4 0.0117188,0 0.004062,6.7692e-4 0.007681,0.003099 0.0117188,0.003906 0.002554,5.1072e-4 0.005208,0 0.007813,0 0.007813,0 0.015625,0 0.0234375,0 0.0195313,0 0.0390625,0 0.0585938,0 0.0703125,0 0.140625,0 0.2109375,0"
       id="path4550"
       inkscape:connector-curvature="0" />
    <path
       style="fill:none;stroke:#000000;stroke-width:0.01;stroke-linecap:butt;stroke-linejoin:miter;stroke-opacity:1;stroke-miterlimit:4;stroke-dasharray:none"
       d="m 0.109375,0.390625 c 0.0104167,0 0.0208693,-8.6506e-4 0.03125,0 0.00535,4.4584e-4 0.0102892,0.003313 0.015625,0.003906 0.0142353,0.001582 0.0287047,-0.001297 0.0429687,0 0.006612,6.011e-4 0.0129248,0.003246 0.0195313,0.003906 0.006478,6.4781e-4 0.0130208,0 0.0195313,0 0.015625,0 0.03125,0 0.046875,0 0.0442708,0 0.0885417,0 0.1328125,0 0.0143229,0 0.0286458,0 0.0429687,0 0.007813,0 0.015625,0 0.0234375,0 0.003906,0 0.007866,-6.4218e-4 0.0117188,0 0.004062,6.7692e-4 0.007657,0.003229 0.0117188,0.003906 0.003853,6.4218e-4 0.007813,0 0.0117188,0 0.001302,0 0.002742,-5.8231e-4 0.003906,0 0.001647,8.2351e-4 0.002259,0.003083 0.003906,0.003906 0.001165,5.8231e-4 0.002604,0 0.003906,0 0.003906,0 0.007813,0 0.0117188,0 0.0104167,0 0.0208333,0 0.03125,0 0.0338542,0 0.0677083,0 0.1015625,0 0.0247396,0 0.0494792,0 0.0742188,0 0.007813,0 0.015625,0 0.0234375,0 0.003906,0 0.007888,7.6608e-4 0.0117188,0 0.004038,-8.0752e-4 0.007681,-0.003099 0.0117188,-0.003906 0.003876,-7.7527e-4 0.0154272,0 0.0195313,0 0.0143229,0 0.0286458,0 0.0429687,0 0.00109,0 0.0242573,0 0.0117188,0"
       id="path4552"
       inkscape:connector-curvature="0" />
    <path
       style="fill:none;stroke:#000000;stroke-width:0.01;stroke-linecap:butt;stroke-linejoin:miter;stroke-opacity:1;stroke-miterlimit:4;stroke-dasharray:none"
       d="m 0.10546875,0.52734375 c 0.006044,0.002709 0.023863,-0.001847 0.03125,0 0.002825,7.0615e-4 0.004957,0.003335 0.007813,0.003906 0.008358,0.001672 0.0224536,-0.001257 0.03125,0 0.005315,7.5924e-4 0.0102978,0.00324 0.015625,0.003906 0.005168,6.4601e-4 0.010469,-7.3657e-4 0.015625,0 0.004076,5.8231e-4 0.007643,0.003324 0.0117188,0.003906 0.005156,7.3657e-4 0.0104167,0 0.015625,0 0.007813,0 0.015625,0 0.0234375,0 0.0182292,0 0.0364583,0 0.0546875,0 0.005208,0 0.0104167,0 0.015625,0 0.002604,0 0.005259,-5.1072e-4 0.007813,0 0.004038,8.0752e-4 0.007724,0.002908 0.0117188,0.003906 0.001263,3.158e-4 0.002604,0 0.003906,0 0.009115,0 0.0182292,0 0.0273438,0 0.0234375,0 0.046875,0 0.0703125,0 0.0338542,0 0.0677083,0 0.1015625,0 0.0104167,0 0.0208333,0 0.03125,0 0.005208,0 0.010469,7.3657e-4 0.015625,0 0.004076,-5.8231e-4 0.007643,-0.003324 0.0117188,-0.003906 0.009023,-0.001289 0.0183532,0.001498 0.0273438,0 0.004062,-6.7692e-4 0.007724,-0.002908 0.0117188,-0.003906 0.001263,-3.158e-4 0.002604,0 0.003906,0 0.00651,0 0.0130208,0 0.0195313,0 0.007813,0 0.015625,0 0.0234375,0 0.002604,0 0.005208,0 0.007813,0 0.001302,0 0.002742,5.8231e-4 0.003906,0 0.001647,-8.2351e-4 0.002159,-0.003324 0.003906,-0.003906 0.003706,-0.001235 0.007813,0 0.0117188,0 0.009115,0 0.0182292,0 0.0273438,0 0.0195313,0 0.0390625,0 0.0585938,0 0.003333,0 0.0258924,-7.2568e-4 0.0273438,0 0.001647,8.2351e-4 0.002259,0.003083 0.003906,0.003906 0.00101,5.0498e-4 0.0206687,0 0.0234375,0 0.001302,0 0.002986,-9.2071e-4 0.003906,0 9.2071e-4,9.2071e-4 -9.2071e-4,0.002986 0,0.003906 9.2071e-4,9.2071e-4 0.002604,0 0.003906,0 0.001302,0 0.002604,0 0.003906,0"
       id="path4554"
       inkscape:connector-curvature="0" />
    <path
       style="fill:none;stroke:#000000;stroke-width:0.01;stroke-linecap:butt;stroke-linejoin:miter;stroke-opacity:1;stroke-miterlimit:4;stroke-dasharray:none"
       d="m 0.10546875,0.65625 c 0.0236177,9.7359e-4 0.0347924,-2.4451e-4 0.0585938,-0.003906 0.007828,-0.001204 0.0155446,-0.003249 0.0234375,-0.003906 0.007786,-6.4879e-4 0.0156638,7.7737e-4 0.0234375,0 0.0548526,-0.005485 -0.0296547,-0.003906 0.0351563,-0.003906 0.0182292,0 0.0364583,0 0.0546875,0 0.009115,0 0.0182493,-6.0629e-4 0.0273438,0 0.0176658,-0.002453 0.0337142,0.00639 0.0507813,0.007813 0.009083,7.5692e-4 0.0182292,0 0.0273438,0 0.0208333,0 0.0416667,0 0.0625,0 0.0195313,0 0.0390625,0 0.0585938,0 0.005208,0 0.0104167,0 0.015625,0 0.002604,0 0.005259,5.1072e-4 0.007813,0 0.0304267,-0.006085 -0.0123283,-0.00297 0.03125,-0.007813 0.005176,-5.7516e-4 0.0104425,5.1825e-4 0.015625,0 0.007881,-7.881e-4 0.0155498,-0.003189 0.0234375,-0.003906 0.006484,-5.8943e-4 0.0130208,0 0.0195313,0 0.0117188,0 0.0234375,0 0.0351563,0 0.002604,0 0.005259,5.1072e-4 0.007813,0 0.004038,-8.0752e-4 0.007724,-0.002908 0.0117188,-0.003906 0.001263,-3.158e-4 0.002604,0 0.003906,0 0.002604,0 0.005208,0 0.007813,0 0.0104167,0 0.0208333,0 0.03125,0 0.03125,0 0.0625,0 0.09375,0 0.007813,0 0.015625,0 0.0234375,0 0.001759,0 0.01053,-5.944e-4 0.0117188,0 0.001647,8.2351e-4 0.002259,0.003083 0.003906,0.003906 0.001448,7.2409e-4 0.0234375,-6.4651e-4 0.0234375,0 0,0.001302 -0.002604,0 -0.003906,0"
       id="path4556"
       inkscape:connector-curvature="0" />
    <path
       style="fill:none;stroke:#000000;stroke-width:0.01;stroke-linecap:butt;stroke-linejoin:miter;stroke-opacity:1;stroke-miterlimit:4;stroke-dasharray:none"
       d="m 0.1328125,0.76953125 c 0.0260417,0 0.0520833,0 0.078125,0 0.005208,0 0.0104875,8.5624e-4 0.015625,0 0.002872,-4.7866e-4 0.004957,-0.003335 0.007813,-0.003906 0.00383,-7.6608e-4 0.007866,6.4218e-4 0.0117188,0 0.004062,-6.7692e-4 0.007618,-0.003533 0.0117188,-0.003906 0.0103739,-9.4308e-4 0.0208333,0 0.03125,0 0.0195313,0 0.0390625,0 0.0585938,0 0.0130208,0 0.0260417,0 0.0390625,0 0.0130208,0 0.0261213,-0.001438 0.0390625,0 0.0106716,0.001186 0.0206069,0.006393 0.03125,0.007813 0.009035,0.001205 0.0182292,0 0.0273438,0 0.0117188,0 0.0234375,0 0.0351563,0 0.003906,0 0.007813,0 0.0117188,0 0.001302,0 0.002986,-9.2071e-4 0.003906,0 9.2071e-4,9.2071e-4 -0.001165,0.003324 0,0.003906 0.002329,0.001165 0.005208,0 0.007813,0 0.002604,0 0.005208,0 0.007813,0 0.0182292,0 0.0364583,0 0.0546875,0 0.0143229,0 0.0286458,0 0.0429687,0 0.00651,0 0.0130208,0 0.0195313,0 0.001302,0 0.002671,4.1175e-4 0.003906,0 0.002762,-9.2071e-4 0.00505,-0.002986 0.007813,-0.003906 0.003706,-0.001235 0.008013,0.001235 0.0117188,0 0.001747,-5.8231e-4 0.002259,-0.003083 0.003906,-0.003906 0.001549,-7.744e-4 0.0109202,7.9858e-4 0.0117188,0 9.2071e-4,-9.2071e-4 -9.2071e-4,-0.002986 0,-0.003906 0.001953,-0.001953 0.009766,0.001953 0.0117188,0 9.2071e-4,-9.2071e-4 -9.2071e-4,-0.002986 0,-0.003906 9.2071e-4,-9.2071e-4 0.002604,0 0.003906,0 0.001302,0 0.002604,0 0.003906,0 0.003906,0 0.008013,0.001235 0.0117188,0 0.001747,-5.8231e-4 0.002159,-0.003324 0.003906,-0.003906 0.002471,-8.2351e-4 0.005208,0 0.007813,0 0.003906,0 0.007813,0 0.0117188,0 0.001302,0 0.002671,4.1175e-4 0.003906,0 0.002762,-9.2071e-4 0.004988,-0.0032 0.007813,-0.003906 0.002526,-6.316e-4 0.005208,0 0.007813,0 0.001302,0 0.002742,5.8231e-4 0.003906,0 0.001647,-8.2351e-4 0.002159,-0.003324 0.003906,-0.003906 0.003706,-0.001235 0.008013,0.001235 0.0117188,0 0.002762,-9.2071e-4 0.00505,-0.002986 0.007813,-0.003906 0.002114,-7.047e-4 0.0142942,0 0.015625,0 0.0104167,0 0.0208333,0 0.03125,0 0.009115,0 0.0182292,0 0.0273438,0 0.001302,0 0.002604,0 0.003906,0 0.001302,0 0.003906,-0.001302 0.003906,0 6.7e-7,0.005368 -0.002603,0.0104149 -0.003904,0.0156224"
       id="path4558"
       inkscape:connector-curvature="0" />
  </g>
</svg>
