solid OpenSCAD_Model
  facet normal 0.965926 0.258819 0
    outer loop
      vertex 4.33333 0 3
      vertex 4.1547 0.666666 1
      vertex 4.1547 0.666666 3
    endloop
  endfacet
  facet normal 0.965926 0.258819 0
    outer loop
      vertex 4.1547 0.666666 1
      vertex 4.33333 0 3
      vertex 4.33333 0 1
    endloop
  endfacet
  facet normal -0.965926 0.258819 0
    outer loop
      vertex 1.66667 0 1
      vertex 1.8453 0.666666 3
      vertex 1.8453 0.666666 1
    endloop
  endfacet
  facet normal -0.965926 0.258819 0
    outer loop
      vertex 1.8453 0.666666 3
      vertex 1.66667 0 1
      vertex 1.66667 0 3
    endloop
  endfacet
  facet normal 0.258819 0.965926 -0
    outer loop
      vertex 3.66667 1.1547 1
      vertex 3 1.33333 3
      vertex 3.66667 1.1547 3
    endloop
  endfacet
  facet normal 0.258819 0.965926 0
    outer loop
      vertex 3 1.33333 3
      vertex 3.66667 1.1547 1
      vertex 3 1.33333 1
    endloop
  endfacet
  facet normal 0.707107 0.707107 0
    outer loop
      vertex 4.1547 0.666666 3
      vertex 3.66667 1.1547 1
      vertex 3.66667 1.1547 3
    endloop
  endfacet
  facet normal 0.707107 0.707107 0
    outer loop
      vertex 3.66667 1.1547 1
      vertex 4.1547 0.666666 3
      vertex 4.1547 0.666666 1
    endloop
  endfacet
  facet normal -0.258819 0.965926 0
    outer loop
      vertex 3 1.33333 1
      vertex 2.33333 1.1547 3
      vertex 3 1.33333 3
    endloop
  endfacet
  facet normal -0.258819 0.965926 0
    outer loop
      vertex 2.33333 1.1547 3
      vertex 3 1.33333 1
      vertex 2.33333 1.1547 1
    endloop
  endfacet
  facet normal 0.258819 -0.965926 0
    outer loop
      vertex 3 -1.33333 1
      vertex 3.66667 -1.1547 3
      vertex 3 -1.33333 3
    endloop
  endfacet
  facet normal 0.258819 -0.965926 0
    outer loop
      vertex 3.66667 -1.1547 3
      vertex 3 -1.33333 1
      vertex 3.66667 -1.1547 1
    endloop
  endfacet
  facet normal -0.965926 -0.258819 0
    outer loop
      vertex 1.8453 -0.666666 1
      vertex 1.66667 0 3
      vertex 1.66667 0 1
    endloop
  endfacet
  facet normal -0.965926 -0.258819 0
    outer loop
      vertex 1.66667 0 3
      vertex 1.8453 -0.666666 1
      vertex 1.8453 -0.666666 3
    endloop
  endfacet
  facet normal 0 0 -1
    outer loop
      vertex 4.61803 -1.17557 0
      vertex 4.61803 1.17557 0
      vertex 5 0 0
    endloop
  endfacet
  facet normal 0 0 -1
    outer loop
      vertex 3.61803 -1.90211 0
      vertex 4.61803 1.17557 0
      vertex 4.61803 -1.17557 0
    endloop
  endfacet
  facet normal 0 0 -1
    outer loop
      vertex 3.61803 -1.90211 0
      vertex 3.61803 1.90211 0
      vertex 4.61803 1.17557 0
    endloop
  endfacet
  facet normal 0 0 -1
    outer loop
      vertex -3.61803 -1.90211 0
      vertex 3.61803 1.90211 0
      vertex 3.61803 -1.90211 0
    endloop
  endfacet
  facet normal 0 0 -1
    outer loop
      vertex -3.61803 -1.90211 0
      vertex -3.61803 1.90211 0
      vertex 3.61803 1.90211 0
    endloop
  endfacet
  facet normal 0 0 -1
    outer loop
      vertex -4.61803 -1.17557 0
      vertex -3.61803 1.90211 0
      vertex -3.61803 -1.90211 0
    endloop
  endfacet
  facet normal 0 0 -1
    outer loop
      vertex -4.61803 -1.17557 0
      vertex -4.61803 1.17557 0
      vertex -3.61803 1.90211 0
    endloop
  endfacet
  facet normal 0 -0 -1
    outer loop
      vertex -4.61803 1.17557 0
      vertex -4.61803 -1.17557 0
      vertex -5 0 0
    endloop
  endfacet
  facet normal -0.707107 0.707107 0
    outer loop
      vertex 1.8453 0.666666 1
      vertex 2.33333 1.1547 3
      vertex 2.33333 1.1547 1
    endloop
  endfacet
  facet normal -0.707107 0.707107 0
    outer loop
      vertex 2.33333 1.1547 3
      vertex 1.8453 0.666666 1
      vertex 1.8453 0.666666 3
    endloop
  endfacet
  facet normal 0 0 1
    outer loop
      vertex 4.1547 0.666666 3
      vertex 4.1547 -0.666666 3
      vertex 4.33333 0 3
    endloop
  endfacet
  facet normal 0 0 1
    outer loop
      vertex 3.66667 1.1547 3
      vertex 4.1547 -0.666666 3
      vertex 4.1547 0.666666 3
    endloop
  endfacet
  facet normal 0 0 1
    outer loop
      vertex 3.66667 1.1547 3
      vertex 3.66667 -1.1547 3
      vertex 4.1547 -0.666666 3
    endloop
  endfacet
  facet normal 0 0 1
    outer loop
      vertex 3 1.33333 3
      vertex 3.66667 -1.1547 3
      vertex 3.66667 1.1547 3
    endloop
  endfacet
  facet normal 0 0 1
    outer loop
      vertex 3 1.33333 3
      vertex 3 -1.33333 3
      vertex 3.66667 -1.1547 3
    endloop
  endfacet
  facet normal -0 0 1
    outer loop
      vertex 2.33333 1.1547 3
      vertex 3 -1.33333 3
      vertex 3 1.33333 3
    endloop
  endfacet
  facet normal 0 0 1
    outer loop
      vertex 2.33333 1.1547 3
      vertex 2.33333 -1.1547 3
      vertex 3 -1.33333 3
    endloop
  endfacet
  facet normal -0 0 1
    outer loop
      vertex 1.8453 0.666666 3
      vertex 2.33333 -1.1547 3
      vertex 2.33333 1.1547 3
    endloop
  endfacet
  facet normal 0 0 1
    outer loop
      vertex 1.8453 0.666666 3
      vertex 1.8453 -0.666666 3
      vertex 2.33333 -1.1547 3
    endloop
  endfacet
  facet normal 0 -0 1
    outer loop
      vertex 1.8453 -0.666666 3
      vertex 1.8453 0.666666 3
      vertex 1.66667 0 3
    endloop
  endfacet
  facet normal 0.965926 -0.258819 0
    outer loop
      vertex 4.1547 -0.666666 3
      vertex 4.33333 0 1
      vertex 4.33333 0 3
    endloop
  endfacet
  facet normal 0.965926 -0.258819 0
    outer loop
      vertex 4.33333 0 1
      vertex 4.1547 -0.666666 3
      vertex 4.1547 -0.666666 1
    endloop
  endfacet
  facet normal -0.707107 -0.707107 0
    outer loop
      vertex 2.33333 -1.1547 1
      vertex 1.8453 -0.666666 3
      vertex 1.8453 -0.666666 1
    endloop
  endfacet
  facet normal -0.707107 -0.707107 0
    outer loop
      vertex 1.8453 -0.666666 3
      vertex 2.33333 -1.1547 1
      vertex 2.33333 -1.1547 3
    endloop
  endfacet
  facet normal 0.707107 -0.707107 0
    outer loop
      vertex 3.66667 -1.1547 3
      vertex 4.1547 -0.666666 1
      vertex 4.1547 -0.666666 3
    endloop
  endfacet
  facet normal 0.707107 -0.707107 0
    outer loop
      vertex 4.1547 -0.666666 1
      vertex 3.66667 -1.1547 3
      vertex 3.66667 -1.1547 1
    endloop
  endfacet
  facet normal -0.258819 -0.965926 0
    outer loop
      vertex 2.33333 -1.1547 1
      vertex 3 -1.33333 3
      vertex 2.33333 -1.1547 3
    endloop
  endfacet
  facet normal -0.258819 -0.965926 -0
    outer loop
      vertex 3 -1.33333 3
      vertex 2.33333 -1.1547 1
      vertex 3 -1.33333 1
    endloop
  endfacet
  facet normal 0 0 1
    outer loop
      vertex -1.8453 0.666666 3
      vertex -1.8453 -0.666666 3
      vertex -1.66667 0 3
    endloop
  endfacet
  facet normal 0 0 1
    outer loop
      vertex -2.33333 1.1547 3
      vertex -1.8453 -0.666666 3
      vertex -1.8453 0.666666 3
    endloop
  endfacet
  facet normal 0 0 1
    outer loop
      vertex -2.33333 1.1547 3
      vertex -2.33333 -1.1547 3
      vertex -1.8453 -0.666666 3
    endloop
  endfacet
  facet normal 0 0 1
    outer loop
      vertex -2.33333 1.1547 3
      vertex -3 -1.33333 3
      vertex -2.33333 -1.1547 3
    endloop
  endfacet
  facet normal 0 0 1
    outer loop
      vertex -3 1.33333 3
      vertex -3 -1.33333 3
      vertex -2.33333 1.1547 3
    endloop
  endfacet
  facet normal -0 0 1
    outer loop
      vertex -3.66667 1.1547 3
      vertex -3 -1.33333 3
      vertex -3 1.33333 3
    endloop
  endfacet
  facet normal 0 0 1
    outer loop
      vertex -3.66667 1.1547 3
      vertex -3.66667 -1.1547 3
      vertex -3 -1.33333 3
    endloop
  endfacet
  facet normal -0 0 1
    outer loop
      vertex -4.1547 0.666666 3
      vertex -3.66667 -1.1547 3
      vertex -3.66667 1.1547 3
    endloop
  endfacet
  facet normal 0 0 1
    outer loop
      vertex -4.1547 0.666666 3
      vertex -4.1547 -0.666666 3
      vertex -3.66667 -1.1547 3
    endloop
  endfacet
  facet normal 0 -0 1
    outer loop
      vertex -4.1547 -0.666666 3
      vertex -4.1547 0.666666 3
      vertex -4.33333 0 3
    endloop
  endfacet
  facet normal -0.965926 0.258819 0
    outer loop
      vertex -4.33333 0 1
      vertex -4.1547 0.666666 3
      vertex -4.1547 0.666666 1
    endloop
  endfacet
  facet normal -0.965926 0.258819 0
    outer loop
      vertex -4.1547 0.666666 3
      vertex -4.33333 0 1
      vertex -4.33333 0 3
    endloop
  endfacet
  facet normal 0.707107 -0.707107 0
    outer loop
      vertex -2.33333 -1.1547 3
      vertex -1.8453 -0.666666 1
      vertex -1.8453 -0.666666 3
    endloop
  endfacet
  facet normal 0.707107 -0.707107 0
    outer loop
      vertex -1.8453 -0.666666 1
      vertex -2.33333 -1.1547 3
      vertex -2.33333 -1.1547 1
    endloop
  endfacet
  facet normal -0.258819 -0.965926 0
    outer loop
      vertex -3.66667 -1.1547 1
      vertex -3 -1.33333 3
      vertex -3.66667 -1.1547 3
    endloop
  endfacet
  facet normal -0.258819 -0.965926 -0
    outer loop
      vertex -3 -1.33333 3
      vertex -3.66667 -1.1547 1
      vertex -3 -1.33333 1
    endloop
  endfacet
  facet normal -0.258819 0.965926 0
    outer loop
      vertex -3 1.33333 1
      vertex -3.66667 1.1547 3
      vertex -3 1.33333 3
    endloop
  endfacet
  facet normal -0.258819 0.965926 0
    outer loop
      vertex -3.66667 1.1547 3
      vertex -3 1.33333 1
      vertex -3.66667 1.1547 1
    endloop
  endfacet
  facet normal 0.258819 -0.965926 0
    outer loop
      vertex -3 -1.33333 1
      vertex -2.33333 -1.1547 3
      vertex -3 -1.33333 3
    endloop
  endfacet
  facet normal 0.258819 -0.965926 0
    outer loop
      vertex -2.33333 -1.1547 3
      vertex -3 -1.33333 1
      vertex -2.33333 -1.1547 1
    endloop
  endfacet
  facet normal 0.965926 -0.258819 0
    outer loop
      vertex -1.8453 -0.666666 3
      vertex -1.66667 0 1
      vertex -1.66667 0 3
    endloop
  endfacet
  facet normal 0.965926 -0.258819 0
    outer loop
      vertex -1.66667 0 1
      vertex -1.8453 -0.666666 3
      vertex -1.8453 -0.666666 1
    endloop
  endfacet
  facet normal -0.707107 0.707107 0
    outer loop
      vertex -4.1547 0.666666 1
      vertex -3.66667 1.1547 3
      vertex -3.66667 1.1547 1
    endloop
  endfacet
  facet normal -0.707107 0.707107 0
    outer loop
      vertex -3.66667 1.1547 3
      vertex -4.1547 0.666666 1
      vertex -4.1547 0.666666 3
    endloop
  endfacet
  facet normal 0.965926 0.258819 0
    outer loop
      vertex -1.66667 0 3
      vertex -1.8453 0.666666 1
      vertex -1.8453 0.666666 3
    endloop
  endfacet
  facet normal 0.965926 0.258819 0
    outer loop
      vertex -1.8453 0.666666 1
      vertex -1.66667 0 3
      vertex -1.66667 0 1
    endloop
  endfacet
  facet normal 0.258819 0.965926 -0
    outer loop
      vertex -2.33333 1.1547 1
      vertex -3 1.33333 3
      vertex -2.33333 1.1547 3
    endloop
  endfacet
  facet normal 0.258819 0.965926 0
    outer loop
      vertex -3 1.33333 3
      vertex -2.33333 1.1547 1
      vertex -3 1.33333 1
    endloop
  endfacet
  facet normal 0.707107 0.707107 0
    outer loop
      vertex -1.8453 0.666666 3
      vertex -2.33333 1.1547 1
      vertex -2.33333 1.1547 3
    endloop
  endfacet
  facet normal 0.707107 0.707107 0
    outer loop
      vertex -2.33333 1.1547 1
      vertex -1.8453 0.666666 3
      vertex -1.8453 0.666666 1
    endloop
  endfacet
  facet normal -0.707107 -0.707107 0
    outer loop
      vertex -3.66667 -1.1547 1
      vertex -4.1547 -0.666666 3
      vertex -4.1547 -0.666666 1
    endloop
  endfacet
  facet normal -0.707107 -0.707107 0
    outer loop
      vertex -4.1547 -0.666666 3
      vertex -3.66667 -1.1547 1
      vertex -3.66667 -1.1547 3
    endloop
  endfacet
  facet normal -0.965926 -0.258819 0
    outer loop
      vertex -4.1547 -0.666666 1
      vertex -4.33333 0 3
      vertex -4.33333 0 1
    endloop
  endfacet
  facet normal -0.965926 -0.258819 0
    outer loop
      vertex -4.33333 0 3
      vertex -4.1547 -0.666666 1
      vertex -4.1547 -0.666666 3
    endloop
  endfacet
  facet normal -0.951056 -0.309017 0
    outer loop
      vertex -4.61803 -1.17557 0
      vertex -5 0 1
      vertex -5 0 0
    endloop
  endfacet
  facet normal -0.951056 -0.309017 0
    outer loop
      vertex -5 0 1
      vertex -4.61803 -1.17557 0
      vertex -4.61803 -1.17557 1
    endloop
  endfacet
  facet normal 0 -1 0
    outer loop
      vertex -3.61803 -1.90211 0
      vertex 3.61803 -1.90211 1
      vertex -3.61803 -1.90211 1
    endloop
  endfacet
  facet normal 0 -1 -0
    outer loop
      vertex 3.61803 -1.90211 1
      vertex -3.61803 -1.90211 0
      vertex 3.61803 -1.90211 0
    endloop
  endfacet
  facet normal -0 0 1
    outer loop
      vertex 4.1547 0.666666 1
      vertex 5 0 1
      vertex 4.61803 1.17557 1
    endloop
  endfacet
  facet normal 0 0 1
    outer loop
      vertex 4.1547 -0.666666 1
      vertex 5 0 1
      vertex 4.33333 0 1
    endloop
  endfacet
  facet normal 0 0 1
    outer loop
      vertex 5 0 1
      vertex 4.1547 0.666666 1
      vertex 4.33333 0 1
    endloop
  endfacet
  facet normal 0 0 1
    outer loop
      vertex 4.61803 1.17557 1
      vertex 3.66667 1.1547 1
      vertex 4.1547 0.666666 1
    endloop
  endfacet
  facet normal 0 0 1
    outer loop
      vertex 3.61803 1.90211 1
      vertex 3.66667 1.1547 1
      vertex 4.61803 1.17557 1
    endloop
  endfacet
  facet normal 0 0 1
    outer loop
      vertex 3.61803 1.90211 1
      vertex 3 1.33333 1
      vertex 3.66667 1.1547 1
    endloop
  endfacet
  facet normal 0 0 1
    outer loop
      vertex 3.61803 1.90211 1
      vertex 2.33333 1.1547 1
      vertex 3 1.33333 1
    endloop
  endfacet
  facet normal 0 0 1
    outer loop
      vertex 1.8453 0.666666 1
      vertex -1.66667 0 1
      vertex 1.66667 0 1
    endloop
  endfacet
  facet normal 0 0 1
    outer loop
      vertex -1.8453 0.666666 1
      vertex 1.8453 0.666666 1
      vertex 2.33333 1.1547 1
    endloop
  endfacet
  facet normal 0 0 1
    outer loop
      vertex -2.33333 1.1547 1
      vertex 2.33333 1.1547 1
      vertex 3.61803 1.90211 1
    endloop
  endfacet
  facet normal 0 0 1
    outer loop
      vertex 1.8453 0.666666 1
      vertex -1.8453 0.666666 1
      vertex -1.66667 0 1
    endloop
  endfacet
  facet normal 0 0 1
    outer loop
      vertex 2.33333 1.1547 1
      vertex -2.33333 1.1547 1
      vertex -1.8453 0.666666 1
    endloop
  endfacet
  facet normal -0 0 1
    outer loop
      vertex -3.61803 1.90211 1
      vertex -2.33333 1.1547 1
      vertex 3.61803 1.90211 1
    endloop
  endfacet
  facet normal 0 0 1
    outer loop
      vertex -2.33333 1.1547 1
      vertex -3.61803 1.90211 1
      vertex -3 1.33333 1
    endloop
  endfacet
  facet normal 0 0 1
    outer loop
      vertex -3.61803 1.90211 1
      vertex -3.66667 1.1547 1
      vertex -3 1.33333 1
    endloop
  endfacet
  facet normal -0 0 1
    outer loop
      vertex -4.61803 1.17557 1
      vertex -3.66667 1.1547 1
      vertex -3.61803 1.90211 1
    endloop
  endfacet
  facet normal 0 0 1
    outer loop
      vertex -5 0 1
      vertex -4.1547 0.666666 1
      vertex -4.61803 1.17557 1
    endloop
  endfacet
  facet normal 0 0 1
    outer loop
      vertex -3.66667 1.1547 1
      vertex -4.61803 1.17557 1
      vertex -4.1547 0.666666 1
    endloop
  endfacet
  facet normal 0 0 1
    outer loop
      vertex 5 0 1
      vertex 4.1547 -0.666666 1
      vertex 4.61803 -1.17557 1
    endloop
  endfacet
  facet normal -0 0 1
    outer loop
      vertex 3.66667 -1.1547 1
      vertex 4.61803 -1.17557 1
      vertex 4.1547 -0.666666 1
    endloop
  endfacet
  facet normal 0 0 1
    outer loop
      vertex 3.66667 -1.1547 1
      vertex 3.61803 -1.90211 1
      vertex 4.61803 -1.17557 1
    endloop
  endfacet
  facet normal -0 0 1
    outer loop
      vertex 3 -1.33333 1
      vertex 3.61803 -1.90211 1
      vertex 3.66667 -1.1547 1
    endloop
  endfacet
  facet normal 0 0 1
    outer loop
      vertex 2.33333 -1.1547 1
      vertex 3.61803 -1.90211 1
      vertex 3 -1.33333 1
    endloop
  endfacet
  facet normal -0 0 1
    outer loop
      vertex -1.66667 0 1
      vertex 1.8453 -0.666666 1
      vertex 1.66667 0 1
    endloop
  endfacet
  facet normal 0 0 1
    outer loop
      vertex -1.8453 -0.666666 1
      vertex 1.8453 -0.666666 1
      vertex -1.66667 0 1
    endloop
  endfacet
  facet normal 0 0 1
    outer loop
      vertex 1.8453 -0.666666 1
      vertex -1.8453 -0.666666 1
      vertex 2.33333 -1.1547 1
    endloop
  endfacet
  facet normal 0 0 1
    outer loop
      vertex -2.33333 -1.1547 1
      vertex 2.33333 -1.1547 1
      vertex -1.8453 -0.666666 1
    endloop
  endfacet
  facet normal 0 0 1
    outer loop
      vertex 2.33333 -1.1547 1
      vertex -2.33333 -1.1547 1
      vertex 3.61803 -1.90211 1
    endloop
  endfacet
  facet normal 0 0 1
    outer loop
      vertex -3.61803 -1.90211 1
      vertex -2.33333 -1.1547 1
      vertex -3 -1.33333 1
    endloop
  endfacet
  facet normal 0 0 1
    outer loop
      vertex -2.33333 -1.1547 1
      vertex -3.61803 -1.90211 1
      vertex 3.61803 -1.90211 1
    endloop
  endfacet
  facet normal 0 0 1
    outer loop
      vertex -3.66667 -1.1547 1
      vertex -3.61803 -1.90211 1
      vertex -3 -1.33333 1
    endloop
  endfacet
  facet normal 0 0 1
    outer loop
      vertex -4.61803 -1.17557 1
      vertex -3.66667 -1.1547 1
      vertex -4.1547 -0.666666 1
    endloop
  endfacet
  facet normal 0 0 1
    outer loop
      vertex -3.66667 -1.1547 1
      vertex -4.61803 -1.17557 1
      vertex -3.61803 -1.90211 1
    endloop
  endfacet
  facet normal -0 0 1
    outer loop
      vertex -5 0 1
      vertex -4.1547 -0.666666 1
      vertex -4.33333 0 1
    endloop
  endfacet
  facet normal 0 0 1
    outer loop
      vertex -4.1547 0.666666 1
      vertex -5 0 1
      vertex -4.33333 0 1
    endloop
  endfacet
  facet normal 0 0 1
    outer loop
      vertex -4.1547 -0.666666 1
      vertex -5 0 1
      vertex -4.61803 -1.17557 1
    endloop
  endfacet
  facet normal -0.587785 -0.809017 0
    outer loop
      vertex -4.61803 -1.17557 0
      vertex -3.61803 -1.90211 1
      vertex -4.61803 -1.17557 1
    endloop
  endfacet
  facet normal -0.587785 -0.809017 -0
    outer loop
      vertex -3.61803 -1.90211 1
      vertex -4.61803 -1.17557 0
      vertex -3.61803 -1.90211 0
    endloop
  endfacet
  facet normal 0.587785 0.809017 -0
    outer loop
      vertex 4.61803 1.17557 0
      vertex 3.61803 1.90211 1
      vertex 4.61803 1.17557 1
    endloop
  endfacet
  facet normal 0.587785 0.809017 0
    outer loop
      vertex 3.61803 1.90211 1
      vertex 4.61803 1.17557 0
      vertex 3.61803 1.90211 0
    endloop
  endfacet
  facet normal 0 1 -0
    outer loop
      vertex 3.61803 1.90211 0
      vertex -3.61803 1.90211 1
      vertex 3.61803 1.90211 1
    endloop
  endfacet
  facet normal 0 1 0
    outer loop
      vertex -3.61803 1.90211 1
      vertex 3.61803 1.90211 0
      vertex -3.61803 1.90211 0
    endloop
  endfacet
  facet normal -0.951056 0.309017 0
    outer loop
      vertex -5 0 0
      vertex -4.61803 1.17557 1
      vertex -4.61803 1.17557 0
    endloop
  endfacet
  facet normal -0.951056 0.309017 0
    outer loop
      vertex -4.61803 1.17557 1
      vertex -5 0 0
      vertex -5 0 1
    endloop
  endfacet
  facet normal 0.951056 0.309017 0
    outer loop
      vertex 5 0 1
      vertex 4.61803 1.17557 0
      vertex 4.61803 1.17557 1
    endloop
  endfacet
  facet normal 0.951056 0.309017 0
    outer loop
      vertex 4.61803 1.17557 0
      vertex 5 0 1
      vertex 5 0 0
    endloop
  endfacet
  facet normal -0.587785 0.809017 0
    outer loop
      vertex -3.61803 1.90211 0
      vertex -4.61803 1.17557 1
      vertex -3.61803 1.90211 1
    endloop
  endfacet
  facet normal -0.587785 0.809017 0
    outer loop
      vertex -4.61803 1.17557 1
      vertex -3.61803 1.90211 0
      vertex -4.61803 1.17557 0
    endloop
  endfacet
  facet normal 0.951056 -0.309017 0
    outer loop
      vertex 4.61803 -1.17557 1
      vertex 5 0 0
      vertex 5 0 1
    endloop
  endfacet
  facet normal 0.951056 -0.309017 0
    outer loop
      vertex 5 0 0
      vertex 4.61803 -1.17557 1
      vertex 4.61803 -1.17557 0
    endloop
  endfacet
  facet normal 0.587785 -0.809017 0
    outer loop
      vertex 3.61803 -1.90211 0
      vertex 4.61803 -1.17557 1
      vertex 3.61803 -1.90211 1
    endloop
  endfacet
  facet normal 0.587785 -0.809017 0
    outer loop
      vertex 4.61803 -1.17557 1
      vertex 3.61803 -1.90211 0
      vertex 4.61803 -1.17557 0
    endloop
  endfacet
endsolid OpenSCAD_Model
